<svg xmlns="http://www.w3.org/2000/svg" xmlns:xlink="http://www.w3.org/1999/xlink" viewBox="0 0 483.93 590">
  <defs>
    <style>
      .cls-1 {
        isolation: isolate;
      }

      .cls-2, .cls-3 {
        fill: #17a24a;
      }

      .cls-3 {
        mix-blend-mode: multiply;
      }

      .cls-4 {
        fill: #8cb347;
      }

      .cls-5 {
        fill: #603e2a;
      }
    </style>
  </defs>
  <g class="cls-1">
    <g id="Layer_2" data-name="Layer 2">
      <g id="ui">
        <g id="ourmissions">
          <g id="icon">
            <g>
              <g>
                <path class="cls-2" d="M335.33,433.71c.12-.17.26-.34.38-.52a70.55,70.55,0,0,1,12.1-70,58.87,58.87,0,0,1,13.84-70.55l12.69-8.52a59.37,59.37,0,0,1,30.76-6l15,3.15a58.86,58.86,0,0,1,34.37,79.54c.33.35.67.68,1,1a71.37,71.37,0,0,1,17.44,52.25,70.6,70.6,0,0,1-4.23,19.1,81.53,81.53,0,0,1,5.74,9.73c.71,1.44,1.36,2.9,2,4.35,5.59,11.57,8.65,28.63,7.25,40.87a80,80,0,0,1-141.42,44.93l-.1-.1c-9.33-9.06-16.66-26.38-19-38.8l-1.26-21.59A80.69,80.69,0,0,1,335.33,433.71Z"/>
                <path class="cls-3" d="M454,491.54a71.36,71.36,0,0,0-10.28-36.8,71.54,71.54,0,0,0,6-28.57A73.18,73.18,0,0,0,422.91,370a71.21,71.21,0,0,0,5.88-28.33c0-26.69-15-50.39-36.84-63.09a61.17,61.17,0,0,1,13.15-.48l15,3.15a58.86,58.86,0,0,1,34.37,79.54c.33.35.67.68,1,1a71.37,71.37,0,0,1,17.44,52.25,70.6,70.6,0,0,1-4.23,19.1,81.53,81.53,0,0,1,5.74,9.73c.71,1.44,1.36,2.9,2,4.35,5.59,11.57,8.65,28.63,7.25,40.87a79.93,79.93,0,0,1-84.53,73.72C430.33,553.82,454,525,454,491.54Z"/>
              </g>
              <g>
                <g>
                  <line class="cls-4" x1="402.81" y1="589.91" x2="402.81" y2="450"/>
                  <polygon class="cls-5" points="386.03 589.91 400.02 450 405.61 450 419.6 589.91 386.03 589.91"/>
                </g>
                <g>
                  <line class="cls-4" x1="400.6" y1="498.22" x2="378.61" y2="476.23"/>
                  <polygon class="cls-5" points="395.66 503.17 377.79 477.05 379.44 475.4 405.55 493.27 395.66 503.17"/>
                </g>
                <g>
                  <line class="cls-4" x1="400.6" y1="529" x2="422.6" y2="507.01"/>
                  <polygon class="cls-5" points="395.66 524.05 421.77 506.18 423.42 507.83 405.55 533.95 395.66 524.05"/>
                </g>
              </g>
            </g>
            <g>
              <g>
                <path class="cls-2" d="M237.06,488.46a4.15,4.15,0,0,0,.24-.34,45.82,45.82,0,0,1,7.87-45.49,38.23,38.23,0,0,1,9-45.82q4.12-2.76,8.24-5.53a38.59,38.59,0,0,1,20-3.88l9.71,2a38.3,38.3,0,0,1,25.52,39.08,37.87,37.87,0,0,1-3.2,12.58c.21.23.44.45.65.68a45.88,45.88,0,0,1,8.58,46.34,54.87,54.87,0,0,1,3.72,6.32c.46.94.89,1.88,1.28,2.83,3.63,7.51,5.62,18.59,4.71,26.54A52,52,0,0,1,241.5,553l-.06-.06c-6.06-5.89-10.82-17.14-12.37-25.2q-.4-7-.82-14A52.36,52.36,0,0,1,237.06,488.46Z"/>
                <path class="cls-3" d="M314.13,526a46.33,46.33,0,0,0-6.68-23.9,46.4,46.4,0,0,0,3.88-18.55,47.49,47.49,0,0,0-17.39-36.48,46.23,46.23,0,0,0,3.82-18.41,47.68,47.68,0,0,0-23.93-41,39.22,39.22,0,0,1,8.55-.31l9.71,2a38.3,38.3,0,0,1,25.52,39.08,37.87,37.87,0,0,1-3.2,12.58c.21.23.44.45.65.68a45.88,45.88,0,0,1,8.58,46.34,54.87,54.87,0,0,1,3.72,6.32c.46.94.89,1.88,1.28,2.83,3.63,7.51,5.62,18.59,4.71,26.54a51.89,51.89,0,0,1-54.9,47.88C298.76,566.47,314.13,547.77,314.13,526Z"/>
              </g>
              <g>
                <g>
                  <line class="cls-4" x1="280.89" y1="589.91" x2="280.89" y2="499.04"/>
                  <polygon class="cls-5" points="269.99 589.91 279.07 499.04 282.71 499.04 291.79 589.91 269.99 589.91"/>
                </g>
                <g>
                  <line class="cls-4" x1="279.45" y1="530.36" x2="265.17" y2="516.07"/>
                  <polygon class="cls-5" points="276.24 533.57 264.63 516.61 265.71 515.54 282.67 527.14 276.24 533.57"/>
                </g>
                <g>
                  <line class="cls-4" x1="279.45" y1="550.35" x2="293.74" y2="536.07"/>
                  <polygon class="cls-5" points="276.24 547.14 293.2 535.53 294.27 536.6 282.67 553.56 276.24 547.14"/>
                </g>
              </g>
            </g>
            <image width="392" height="575" transform="matrix(-1.03, 0, 0, 1.03, 402.23, 0)" xlink:href="../../../ALL/VID%202/rent%20c%C3%B3%20l%E1%BB%A3i/quat.png"/>
          </g>
        </g>
      </g>
    </g>
  </g>
</svg>
