<?xml version="1.0" encoding="utf-8"?>
<!-- Generator: Adobe Illustrator 24.0.0, SVG Export Plug-In . SVG Version: 6.00 Build 0)  -->
<svg version="1.1" id="Layer_1" xmlns="http://www.w3.org/2000/svg" xmlns:xlink="http://www.w3.org/1999/xlink" x="0px" y="0px"
	 viewBox="0 0 720 720" style="enable-background:new 0 0 720 720;" xml:space="preserve">
<style type="text/css">
	.st0{fill:#A21942;}
	.st1{fill:#FFFFFF;}
</style>
<title>VN_SDG_icons_RGB outlines-01</title>
<g>
	<g id="goal_background">
		<rect x="-1.1" y="-1.1" class="st0" width="722.2" height="722.2"/>
	</g>
	<g id="ENG_text_graphics">
		<path class="st1" d="M55.1,159c0.2-14.8,5.4-26.5,16.1-32c-7.5-5.4-13.8-15-14.1-30.3C56.8,74,68.7,60,92,60s35,14.1,34.5,36.7
			c-0.3,15.5-6.3,25-13.8,30.3c10.5,5.4,16,17.2,16.1,32c0.5,25.2-9.5,42.5-36.9,42.5C64.8,201.5,55,184.1,55.1,159z M103.1,160.7
			c0.2-11-1.2-22.1-11-22.1c-9.7,0-11.2,11.1-11.2,22.1c0,9.3,1.2,21.2,11.2,21.2S103.1,169.8,103.1,160.7L103.1,160.7z M101.7,95.9
			c0-9.5-3.1-16.2-9.7-16.2c-6.8,0-10,6.6-10,16.2c0,13.3,2.9,21.3,10,21.3C99,117.1,101.7,109.2,101.7,95.9z"/>
		<path class="st1" d="M162.1,97.4V78.7c0-10.8,3.4-17.6,15-17.6c10.8,0,14.2,6,14.2,15.1v4.4h-9.2v-4.6c0-4.4-0.1-8-4.9-8
			s-5.4,3.8-5.4,8.6v22.8c0,5.7,1.2,8.4,5.4,8.4c4.8,0,4.9-3.7,4.9-8.4v-4.7h9.2V99c0,9.3-3.1,16-14.2,16
			C165.6,115,162.1,107.7,162.1,97.4z"/>
		<path class="st1" d="M195.5,97.8V78c0-10.7,3.9-17,15.2-17s15.1,6.3,15.1,17v19.8c0,10.6-3.9,17.2-15.1,17.2
			S195.5,108.4,195.5,97.8z M206.7,45.5h7.9l6,12H214l-3.4-7.8l-3.3,7.8h-6.5L206.7,45.5z M216.1,100V75.8c0-4.4-0.7-7.7-5.4-7.7
			s-5.5,3.3-5.5,7.7V100c0,4.4,0.7,7.9,5.5,7.9S216.1,104.4,216.1,100z"/>
		<path class="st1" d="M231.3,61.6h6.7l12.8,30v-30h7.9v52.6h-6.4l-12.9-31.5v31.5h-8.2V61.6z"/>
		<path class="st1" d="M264.1,96.9V79.2c0-11.3,3.5-18.2,15-18.2c10.8,0,14.6,5.6,14.6,15.3v2.7h-9.2v-3c0-5.1-0.5-8.1-5.3-8.1
			c-5.1,0-5.5,4.1-5.5,8.9v22c0,5.5,1,8.9,5.7,8.9s5.8-3.6,5.8-9.4v-4.9h-5.6v-6H294v26.7h-6.2l-0.6-5.1c-1.4,3.4-4,5.8-8.9,5.8
			C267.8,115,264.1,108,264.1,96.9z"/>
		<path class="st1" d="M311.3,61.6h8.5l7,37.2l6.6-37.2h8.6l-10.6,52.6h-9.4L311.3,61.6z"/>
		<path class="st1" d="M345.9,61.6h9.5v52.6h-9.5V61.6z"/>
		<path class="st1" d="M361.8,61.6h22.1v6.8h-12.6v15.1h9.9v6.7h-9.9v17.5H384v6.6h-22.2V61.6z M369,47h7.9l6,10.5h-6.4l-3.5-6.6
			l-3.5,6.6h-6.4L369,47z M367.7,118.6h8.1v8.1h-8.1V118.6z"/>
		<path class="st1" d="M387.1,97.4V78.7c0-10.8,3.5-17.6,15-17.6c10.8,0,14.2,6,14.2,15.1v4.4h-9.2v-4.6c0-4.4-0.1-8-4.9-8
			s-5.4,3.8-5.4,8.6v22.8c0,5.7,1.2,8.4,5.4,8.4c4.8,0,4.9-3.7,4.9-8.4v-4.7h9.2V99c0,9.3-3.1,16-14.2,16
			C390.5,115,387.1,107.7,387.1,97.4z"/>
		<path class="st1" d="M440.7,68.7h-8.4v-7.1h26.2v7.1h-8.2v45.6h-9.6V68.7z"/>
		<path class="st1" d="M460.5,97.8V78c0-10.7,3.9-17,15.2-17s15.1,6.3,15.1,17v19.8c0,10.6-3.9,17.2-15.1,17.2
			S460.5,108.4,460.5,97.8z M471.7,47h7.9l6,10.5h-6.4l-3.5-6.6l-3.5,6.6h-6.4L471.7,47z M481.1,100V75.8c0-4.4-0.7-7.7-5.4-7.7
			s-5.5,3.3-5.5,7.7V100c0,4.4,0.7,7.9,5.5,7.9S481.1,104.4,481.1,100z M487.7,42.5h7l-5.5,7.7h-4.9L487.7,42.5z"/>
		<path class="st1" d="M501.3,68.7h-8.4v-7.1h26.2v7.1h-8.2v45.6h-9.6L501.3,68.7z"/>
		<path class="st1" d="M533.8,61.6h8.5l7,37.2l6.6-37.2h8.7l-10.6,52.6h-9.4L533.8,61.6z"/>
		<path class="st1" d="M574.1,61.6h10.3l10.5,52.6H586l-2.1-12.2h-9.2l-2.2,12.2h-9L574.1,61.6z M569.1,45h9l3.8,13h-5.1L569.1,45z
			 M582.8,96l-3.6-22.1L575.7,96L582.8,96z"/>
		<path class="st1" d="M168.2,154.7h-8.4v-7.1H186v7.1h-8.2v45.6h-9.6L168.2,154.7z"/>
		<path class="st1" d="M195.7,147.6H206l10.5,52.6h-8.9l-2.1-12.2h-9.2l-2.1,12.2h-9L195.7,147.6z M191.6,134h5
			c0.1,3.2,1.2,4.8,4.4,4.8s4.4-1.8,4.4-4.8h5.1c0,5.8-3.2,9.5-9.4,9.5S191.6,139.8,191.6,134z M204.5,182l-3.6-22.1l-3.6,22.1
			H204.5z"/>
		<path class="st1" d="M220.1,147.6h6.7l12.8,30v-30h7.9v52.6h-6.4l-12.9-31.5v31.5h-8.2V147.6z"/>
		<path class="st1" d="M253,182.9v-17.7c0-11.3,3.5-18.2,15-18.2c10.8,0,14.6,5.6,14.6,15.3v2.7h-9.2v-3c0-5.1-0.5-8.1-5.3-8.1
			c-5.1,0-5.5,4.1-5.5,8.9v22c0,5.5,1,8.9,5.7,8.9s5.8-3.6,5.8-9.4v-4.9h-5.6v-6.1h14.3v26.7h-6.2l-0.6-5.1c-1.4,3.4-4,5.9-8.9,5.9
			C256.6,201,253,194,253,182.9z"/>
		<path class="st1" d="M307.8,154.7h-8.4v-7.1h26.2v7.1h-8.2v45.6h-9.6V154.7z"/>
		<path class="st1" d="M328.8,147.6h12.7c10.5,0,16.5,3.4,16.5,14c0,6.3-1.6,10.7-6.5,12.7l7.3,25.9h-9.6l-6.3-24.1h-4.6v24.1h-9.5
			L328.8,147.6z M341.4,170.2c5.5,0,7.5-2.4,7.5-8.1c0-5.3-1.5-7.9-7-7.9h-3.6v16L341.4,170.2z"/>
		<path class="st1" d="M392.6,150.5v32.7c0,11.1-3,17.7-14.8,17.7s-14.8-6.7-14.8-17.7v-35.6h9.4v36.7c0,5,0.6,9.5,5.5,9.5
			s5.5-4.5,5.5-9.5v-36.7h4c2.6,0,3.5-1.7,3.5-5.2h6.4C397.2,146.5,395.5,149.2,392.6,150.5z"/>
		<path class="st1" d="M428,164v19.8c0,10.6-3.9,17.2-15.1,17.2s-15.2-6.6-15.2-17.2V164c0-10.7,3.9-17,15.2-17
			c1.7,0,3.4,0.2,5.1,0.5c2.1-0.3,2.8-1.9,2.8-5.1h6.4c0,3.7-1.4,6.3-3.9,7.7C426.6,153,428,157.8,428,164z M410.6,134.7
			c-1.2,0-2.5,0.2-3.6,0.5v-4c2-0.5,4-0.8,6-0.8c4,0,7.5,1.8,7.5,6.1s-3.4,6.1-7.5,7.6l-2.9-3.1c2.5-1.1,4.4-2.1,4.4-3.9
			S412.7,134.8,410.6,134.7L410.6,134.7z M418.3,161.7c0-4.4-0.7-7.7-5.4-7.7s-5.5,3.3-5.5,7.7V186c0,4.4,0.7,7.9,5.5,7.9
			s5.4-3.5,5.4-7.9V161.7z"/>
		<path class="st1" d="M433.3,147.6h6.7l12.8,30v-30h7.9v52.6h-6.3l-12.9-31.5v31.5h-8.2V147.6z"/>
		<path class="st1" d="M466.2,182.9v-17.7c0-11.3,3.5-18.2,15-18.2c10.8,0,14.6,5.6,14.6,15.3v2.7h-9.2v-3c0-5.1-0.5-8.1-5.3-8.1
			c-5.1,0-5.5,4.1-5.5,8.9v22c0,5.5,1,8.9,5.7,8.9s5.8-3.6,5.8-9.4v-4.9h-5.6v-6.1H496v26.7h-6.2l-0.6-5.1c-1.4,3.4-4,5.9-8.9,5.9
			C469.9,201,466.2,194,466.2,182.9z"/>
		<path class="st1" d="M165.8,229.6h9.6v23.1l10.5-23.1h9.1l-10.1,23.5l11.1,29.2h-9.5l-8.8-23.9l-2.3,4v20h-9.6V229.6z"/>
		<path class="st1" d="M199,229.6h9.5v52.7H199V229.6z"/>
		<path class="st1" d="M214.9,229.6h6.7l12.8,30v-30h7.9v52.7H236l-12.9-31.5v31.5h-8.2V229.6z"/>
		<path class="st1" d="M248.8,229.6h9.6v22h10.7v-22h9.6v52.7h-9.6v-23.8h-10.7v23.8h-9.6V229.6z"/>
		<path class="st1" d="M304.4,236.7H296v-7.1h26.2v7.1H314v45.6h-9.6L304.4,236.7z"/>
		<path class="st1" d="M325.3,229.6h22.1v6.8h-12.5v15.1h9.9v6.7h-9.9v17.5h12.7v6.6h-22.2V229.6z M332.5,215h7.9l6,10.5H340
			l-3.5-6.6l-3.5,6.6h-6.3L332.5,215z M348.5,210.5h7l-5.5,7.7h-4.9L348.5,210.5z"/>
		<path class="st1" d="M497.7,354.2l-73.7,70.1c-2.8,2.8-4.2,4.8-4.2,10.5v196.6c0,2.3,1.9,4.2,4.2,4.2c0,0,0,0,0,0h76.2
			c2.3,0,4.2-1.9,4.2-4.2l0,0V356C504.3,353.7,502.5,349.4,497.7,354.2"/>
		<path class="st1" d="M285.2,445.6l-73.8,70.1c-2.8,2.8-4.2,4.8-4.2,10.5v105.2c0,2.3,1.9,4.2,4.2,4.2h76.2c2.3,0,4.2-1.9,4.2-4.2
			V447.3C291.9,445,290,440.8,285.2,445.6"/>
		<path class="st1" d="M531.2,269.1c0-0.6-0.2-1.2-0.6-1.6c-0.4-0.4-0.9-0.6-1.4-0.6h-0.4h-0.6l-56.5,12.7l-1,0.1
			c-0.4,0.1-0.8,0.3-1.1,0.6c-0.8,0.8-0.8,2.2,0,3l0.6,0.6l12.9,13L355.2,425l-59.1-59.1c-0.6-0.7-1.7-0.7-2.4,0c0,0,0,0,0,0l-16,16
			l0,0L183,476.6c-0.7,0.7-0.7,1.7,0,2.4l16,16c0.6,0.7,1.7,0.7,2.4,0c0,0,0,0,0,0l93.5-93.5l42.9,42.9c0,0.1,0.1,0.1,0.1,0.2l16,16
			c0.6,0.7,1.7,0.7,2.4,0c0,0,0,0,0,0l145.2-145.2l13.5,13.5c0.8,0.8,2.1,0.8,3,0c0,0,0,0,0,0c0.4-0.4,0.6-0.9,0.6-1.4v-0.2
			l12.4-57.6L531.2,269.1z"/>
		<path class="st1" d="M391.9,457.9l-35.7,36c-0.7,0.6-1.7,0.5-2.3-0.1l-32.3-33c-5.9-5.9-7.2-1.1-7.2,1.2v169.4
			c0,2.3,1.9,4.2,4.2,4.2h0h76.2c2.3,0,4.2-1.9,4.2-4.2V459.2C398.9,456.9,397.1,452.6,391.9,457.9"/>
	</g>
</g>
</svg>
