<svg xmlns="http://www.w3.org/2000/svg" viewBox="0 0 456.84 472.94">
  <defs>
    <style>
      .cls-1 {
        fill: none;
        stroke-width: 0.59px;
      }

      .cls-1, .cls-4 {
        stroke: #a24c3d;
        stroke-linecap: round;
        stroke-linejoin: round;
      }

      .cls-2 {
        fill: #e7b0ae;
      }

      .cls-3 {
        fill: #d2908b;
      }

      .cls-4 {
        fill: #f6c2be;
        stroke-width: 0.7px;
      }

      .cls-5 {
        fill: #fff;
      }
    </style>
  </defs>
  <g id="Layer_2" data-name="Layer 2">
    <g id="ui">
      <g id="ourmissions_2" data-name="ourmissions 2">
        <g id="ícon">
          <g>
            <g>
              <path class="cls-1" d="M71.62,143.28h0c9.54,7.3,23.54,8.21,34.23,2.21l17.66-9.91,1.64-.49-28.74,59c-1.54,3.14,1,6.65,4.93,6.84h0c12,.59,23.12-5.21,28.15-14.61L153,142.38l3.31-2-15,60.09c-.77,3.51,2.95,6.52,6.95,5.62h0c12.27-2.76,21.62-11.36,24.07-22.13l4-17.69a15.6,15.6,0,0,0,6.1-2l23.32-13.53-7.41,49.41c-.28,1.89,1.61,3.49,3.79,3.21h0c12.85-1.69,23-10.36,25-21.47l6.76-36.42,1.2-1.68,23.49-3.91h.07l1.26-.24L274,137.28l-.31-.23,25.79-4.85c14.36-2.69,26.87-10.26,34.73-21L343.82,98l1.71-2.34L456.55.3H347.05L312,58.13,264.76,75.26l-21,1.76-44.64,4.54-.13-.35-24,16.16-44.33,9.33L72.22,137.43A3.38,3.38,0,0,0,71.62,143.28Z"/>
              <g>
                <g>
                  <path class="cls-2" d="M283.22,358.42l-25.73,33.26-44.66,4.53L191.78,398l-47.23,17.13L109.5,472.94H0l111-95.4,1.71-2.34L122.36,362c7.86-10.74,20.36-18.31,34.73-21l40.79-7.65,1.67.49Z"/>
                  <path class="cls-3" d="M198.53,360.64c-7.08,2.56-30.77,1.18-38.36.15a63.44,63.44,0,0,0-31,3.82,44.4,44.4,0,0,0-9.16,4.86,76.57,76.57,0,0,1,27-20.13c5.87-2.65,12.12-4.65,17.9-7.44a48,48,0,0,0,6.1-3.46l26.95-5.06S238.61,343,247.1,345C248.18,351.54,205.62,358.07,198.53,360.64Z"/>
                  <path class="cls-3" d="M212.83,396.21,191.78,398l-47.24,17.13-35,57.83h-9.34c6.06-8.61,12.72-38.06,20.43-45.64,16.88-16.57,39.6-29.76,65-32.07A120.62,120.62,0,0,1,212.83,396.21Z"/>
                  <path class="cls-3" d="M182.57,336l63.25-10.53L274.13,309a16.2,16.2,0,0,1,13.26-1.21l.36.12c3.88,1.34,6.46,4.55,6.57,8.16h0a12,12,0,0,1-6.56,10.73l-67.87,37.7Z"/>
                </g>
                <g>
                  <g>
                    <path class="cls-2" d="M254.85,381.5,279.21,354l51.31-15.55,2.52-.77,17.66-9.9a32.19,32.19,0,0,1,30-.49,28.75,28.75,0,0,1,4.25,2.7,3.43,3.43,0,0,1,1.42,2.72,3.56,3.56,0,0,1-2,3.13L359.85,348.7,326,366.54l-45.35,9.54Z"/>
                    <path class="cls-1" d="M280.62,376.08,326,366.54l33.88-17.84,24.48-12.89a3.56,3.56,0,0,0,2-3.13,3.43,3.43,0,0,0-1.42-2.72,28.75,28.75,0,0,0-4.25-2.7,32.19,32.19,0,0,0-30,.49L333,337.65l-2.52.77"/>
                    <path class="cls-4" d="M358.26,338.52l22.42-11.26a28.75,28.75,0,0,1,4.25,2.7,3.43,3.43,0,0,1,1.42,2.72,3.56,3.56,0,0,1-2,3.13L359.85,348.7l-2.73-2.31C354.4,344.08,355,340.16,358.26,338.52Z"/>
                  </g>
                  <g>
                    <path class="cls-2" d="M248.18,365.18l48.11-29.81,7.28-4.52L327.06,287c4.38-8.2,13.41-13.65,23.57-14.53,1-.09,1.95-.13,2.94-.13.54,0,1.08,0,1.63,0,3.94.2,6.48,3.7,4.94,6.85l-10.08,20.68-21.74,44.58L257.6,392Z"/>
                    <path class="cls-1" d="M296.29,335.37l7.28-4.52L327.06,287c4.38-8.2,13.41-13.65,23.57-14.53,1-.09,1.95-.13,2.94-.13.54,0,1.08,0,1.63,0,3.94.2,6.48,3.7,4.94,6.85l-10.08,20.68-21.74,44.58L257.6,392"/>
                    <path class="cls-4" d="M340,290.49l10.63-18.06c1-.09,1.95-.13,2.94-.13.54,0,1.08,0,1.63,0,3.94.2,6.48,3.7,4.94,6.85l-10.08,20.68-7.63-3.18C339.75,295.58,338.66,292.78,340,290.49Z"/>
                  </g>
                  <g>
                    <path class="cls-2" d="M223.82,360.09l19-11,32.11-18.58,9.36-41.2c2.16-9.51,9.74-17.35,19.95-20.94a36.86,36.86,0,0,1,4.12-1.18,6.5,6.5,0,0,1,1.44-.17c3.39,0,6.18,2.71,5.51,5.79l-4.95,19.78-13,52.19-51.47,46.56Z"/>
                    <path class="cls-1" d="M245.81,391.35l51.47-46.56,13-52.19,4.95-19.78c.67-3.08-2.12-5.79-5.51-5.79a6.5,6.5,0,0,0-1.44.17,36.86,36.86,0,0,0-4.12,1.18C294,272,286.41,279.81,284.25,289.32l-9.36,41.2L242.78,349.1"/>
                    <path class="cls-4" d="M298.47,285.78l5.73-17.4a36.86,36.86,0,0,1,4.12-1.18,6.5,6.5,0,0,1,1.44-.17c3.39,0,6.18,2.71,5.51,5.79l-4.95,19.78-8.27-1.6C299.34,290.47,297.7,288.09,298.47,285.78Z"/>
                  </g>
                  <g>
                    <path class="cls-2" d="M198.29,361.79l1-1.37,23.38-32.62,6.76-36.42c1.73-9.32,9.13-16.93,19.06-20.13a33.1,33.1,0,0,1,6-1.34,2.92,2.92,0,0,1,.51,0,3.05,3.05,0,0,1,3.28,3.25l-3.09,20.6-5.76,38.5-21.61,57.43Z"/>
                    <path class="cls-1" d="M227.75,389.65l21.61-57.43,5.76-38.5,3.09-20.6a3.05,3.05,0,0,0-3.28-3.25,2.92,2.92,0,0,0-.51,0,33.1,33.1,0,0,0-6,1.34c-9.93,3.2-17.33,10.81-19.06,20.13l-6.76,36.42-23.38,32.62"/>
                    <path class="cls-4" d="M245.11,287.11l3.35-15.86a33.1,33.1,0,0,1,6-1.34,2.92,2.92,0,0,1,.51,0,3.05,3.05,0,0,1,3.28,3.25l-3.09,20.6-4.39-.29C247.06,293.18,244.44,290.24,245.11,287.11Z"/>
                  </g>
                </g>
              </g>
            </g>
            <polygon class="cls-5" points="166.67 271.48 162.22 337.75 157.77 271.48 91.51 267.04 157.77 262.59 162.22 196.32 166.67 262.59 232.93 267.04 166.67 271.48"/>
            <polygon class="cls-5" points="275.42 203.35 273 239.33 270.59 203.35 234.61 200.94 270.59 198.52 273 162.55 275.42 198.52 311.39 200.94 275.42 203.35"/>
          </g>
          <g>
            <g>
              <path class="cls-2" d="M173.33,114.81l25.72-33.25L243.71,77l21-1.76L312,58.13,347.05.29h109.5l-111,95.4L343.82,98l-9.64,13.17c-7.85,10.73-20.36,18.3-34.72,21l-40.79,7.66-1.67-.49Z"/>
              <path class="cls-3" d="M258,112.6c7.09-2.56,30.78-1.18,38.36-.15a63.37,63.37,0,0,0,31.06-3.83,43.84,43.84,0,0,0,9.15-4.86,76.56,76.56,0,0,1-27,20.14c-5.88,2.65-12.13,4.64-17.91,7.44a47.17,47.17,0,0,0-6.09,3.46l-26.95,5.06s-40.73-9.6-49.23-11.59C208.37,121.69,250.93,115.17,258,112.6Z"/>
              <path class="cls-3" d="M243.71,77l21-1.76L312,58.13,347.05.29h9.34C350.33,8.9,343.66,38.36,336,45.93,319.08,62.51,296.35,75.7,271,78A120.71,120.71,0,0,1,243.71,77Z"/>
              <path class="cls-3" d="M274,137.28l-63.25,10.54-28.31,16.42a16.26,16.26,0,0,1-13.27,1.21l-.36-.13c-3.87-1.34-6.46-4.55-6.57-8.16h0a12,12,0,0,1,6.57-10.73l67.87-37.7Z"/>
            </g>
            <g>
              <g>
                <path class="cls-2" d="M201.69,91.74l-24.35,27.53L126,134.82l-2.52.76-17.67,9.91a32.14,32.14,0,0,1-30,.48,28.17,28.17,0,0,1-4.25-2.69,3.42,3.42,0,0,1-1.43-2.73,3.55,3.55,0,0,1,2-3.12L96.7,124.54l33.88-17.85,45.34-9.53Z"/>
                <path class="cls-1" d="M175.92,97.16l-45.34,9.53L96.7,124.54,72.22,137.43a3.55,3.55,0,0,0-2,3.12,3.42,3.42,0,0,0,1.43,2.73A28.17,28.17,0,0,0,75.87,146a32.14,32.14,0,0,0,30-.48l17.67-9.91,2.52-.76"/>
                <path class="cls-4" d="M98.28,134.72,75.87,146a28.17,28.17,0,0,1-4.25-2.69,3.42,3.42,0,0,1-1.43-2.73,3.55,3.55,0,0,1,2-3.12L96.7,124.54l2.73,2.31C102.14,129.15,101.57,133.07,98.28,134.72Z"/>
              </g>
              <g>
                <path class="cls-2" d="M208.37,108.06l-48.12,29.81L153,142.38l-23.49,43.9c-4.39,8.2-13.41,13.65-23.58,14.53-1,.09-1.94.13-2.93.13-.54,0-1.09,0-1.64,0-3.94-.2-6.47-3.71-4.93-6.86l10.08-20.67,21.73-44.59L198.94,81.2Z"/>
                <path class="cls-1" d="M160.25,137.87,153,142.38l-23.49,43.9c-4.39,8.2-13.41,13.65-23.58,14.53-1,.09-1.94.13-2.93.13-.54,0-1.09,0-1.64,0-3.94-.2-6.47-3.71-4.93-6.86l10.08-20.67,21.73-44.59L198.94,81.2"/>
                <path class="cls-4" d="M116.54,182.75l-10.63,18.06c-1,.09-1.94.13-2.93.13-.54,0-1.09,0-1.64,0-3.94-.2-6.47-3.71-4.93-6.86l10.08-20.67,7.63,3.17C116.79,177.66,117.89,180.45,116.54,182.75Z"/>
              </g>
              <g>
                <path class="cls-2" d="M232.72,113.15l-19,11-32.1,18.59-9.36,41.19c-2.16,9.52-9.74,17.36-20,21a37.79,37.79,0,0,1-4.12,1.18,6.46,6.46,0,0,1-1.43.16c-3.4,0-6.19-2.7-5.51-5.78l4.95-19.79,13-52.18,51.47-46.56Z"/>
                <path class="cls-1" d="M210.73,81.89l-51.47,46.56-13,52.18-4.95,19.79c-.68,3.08,2.11,5.78,5.51,5.78a6.46,6.46,0,0,0,1.43-.16,37.79,37.79,0,0,0,4.12-1.18c10.22-3.59,17.8-11.43,20-21l9.36-41.19,32.1-18.59"/>
                <path class="cls-4" d="M158.08,187.46l-5.74,17.4a37.79,37.79,0,0,1-4.12,1.18,6.46,6.46,0,0,1-1.43.16c-3.4,0-6.19-2.7-5.51-5.78l4.95-19.79,8.27,1.61C157.21,182.77,158.84,185.15,158.08,187.46Z"/>
              </g>
              <g>
                <path class="cls-2" d="M258.26,111.45l-1,1.37L233.9,145.44l-6.75,36.42c-1.74,9.32-9.14,16.93-19.06,20.13a35,35,0,0,1-6,1.34l-.51,0c-2,0-3.55-1.5-3.28-3.24l3.1-20.61L207.19,141l21.6-57.43Z"/>
                <path class="cls-1" d="M228.79,83.59,207.19,141l-5.76,38.49-3.1,20.61c-.27,1.74,1.33,3.24,3.28,3.24l.51,0a35,35,0,0,0,6-1.34c9.92-3.2,17.32-10.81,19.06-20.13l6.75-36.42,23.38-32.62"/>
                <path class="cls-4" d="M211.44,186.13,208.09,202a35,35,0,0,1-6,1.34l-.51,0c-2,0-3.55-1.5-3.28-3.24l3.1-20.61,4.38.3C209.48,180.06,212.11,183,211.44,186.13Z"/>
              </g>
            </g>
          </g>
        </g>
      </g>
    </g>
  </g>
</svg>
