<svg xmlns="http://www.w3.org/2000/svg" xmlns:xlink="http://www.w3.org/1999/xlink" viewBox="0 0 557.41 506.42">
  <defs>
    <style>
      .cls-1 {
        fill: none;
      }

      .cls-2 {
        fill: #00653d;
      }

      .cls-3 {
        clip-path: url(#clip-path);
      }

      .cls-4 {
        clip-path: url(#clip-path-2);
      }

      .cls-5 {
        clip-path: url(#clip-path-3);
      }
    </style>
    <clipPath id="clip-path" transform="translate(0 -0.01)">
      <rect id="SVGID" class="cls-1" x="225.77" y="242.4" width="110.52" height="95.09"/>
    </clipPath>
    <clipPath id="clip-path-2" transform="translate(0 -0.01)">
      <rect id="SVGID-2" data-name="SVGID" class="cls-1" x="134.36" y="23.98" width="301.92" height="107.89"/>
    </clipPath>
    <clipPath id="clip-path-3" transform="translate(0 -0.01)">
      <rect id="SVGID-3" data-name="SVGID" class="cls-1" x="381.03" width="116.49" height="118.72"/>
    </clipPath>
  </defs>
  <g id="Layer_2" data-name="Layer 2">
    <g id="ui">
      <g id="our_story" data-name="our story">
        <g>
          <path d="M266.56,167,160.92,129.32l12.65-35.51L379.36,167H266.56" transform="translate(0 -0.01)"/>
          <path d="M334.74,244.37l-109-69.53-20.24,31.82,59,37.71h70.19" transform="translate(0 -0.01)"/>
          <path class="cls-2" d="M182.67,167H379.36L356.5,206.66h-151L182.67,167" transform="translate(0 -0.01)"/>
          <g class="cls-3">
            <path class="cls-2" d="M334.74,244.37,281,337.48l-53.73-93.11Z" transform="translate(0 -0.01)"/>
          </g>
          <g class="cls-4">
            <path class="cls-2" d="M160.92,129.32,134.41,83.4l301.8-58.49L401.12,85.27l-240.2,44.05" transform="translate(0 -0.01)"/>
          </g>
          <g class="cls-5">
            <path class="cls-2" d="M382.57,0l25.65,118,89.29-81.21Z" transform="translate(0 -0.01)"/>
          </g>
          <path class="cls-2" d="M108.35,380l-29.19,67.4H63.78L34.71,380H51.57l20.48,48.15L92.85,380Z" transform="translate(0 -0.01)"/>
          <path class="cls-2" d="M120.54,380h15.62v67.4H120.54Z" transform="translate(0 -0.01)"/>
          <path class="cls-2" d="M200.23,447.37l-13-18.75H172.92v18.75H157.3V380h29.19a37.08,37.08,0,0,1,15.5,3,22.75,22.75,0,0,1,10.16,8.47,23.15,23.15,0,0,1,3.58,13,22.89,22.89,0,0,1-3.62,12.95,22.6,22.6,0,0,1-10.24,8.31L217,447.37Zm-.29-42.93q0-5.67-3.66-8.72c-2.45-2-6-3-10.65-3H172.92V416.2h12.71c4.66,0,8.2-1,10.65-3.08S199.94,408.17,199.94,404.44Z" transform="translate(0 -0.01)"/>
          <path class="cls-2" d="M285.41,434.87v12.5H233.23V380h50.94v12.55H248.73v14.59H280v12.13H248.73v15.63Z" transform="translate(0 -0.01)"/>
          <path class="cls-2" d="M364.79,380v67.4H352l-33.6-40.92v40.92H303V380h12.91l33.51,40.92V380Z" transform="translate(0 -0.01)"/>
          <path class="cls-2" d="M399.93,392.68H378.34V380h58.72v12.71H415.51v54.69H399.93Z" transform="translate(0 -0.01)"/>
          <path class="cls-2" d="M483.26,448.52A39.16,39.16,0,0,1,464.35,444a34.37,34.37,0,0,1,0-60.64,39.27,39.27,0,0,1,18.91-4.53,38.84,38.84,0,0,1,18.83,4.53,34.34,34.34,0,0,1,0,60.64A38.73,38.73,0,0,1,483.26,448.52Zm0-13.28A21.52,21.52,0,0,0,494,432.52a19.81,19.81,0,0,0,7.57-7.65,24,24,0,0,0,0-22.36,19.94,19.94,0,0,0-7.57-7.65,22.39,22.39,0,0,0-21.54,0,19.87,19.87,0,0,0-7.57,7.65,24.1,24.1,0,0,0,0,22.36,19.74,19.74,0,0,0,7.57,7.65A21.52,21.52,0,0,0,483.26,435.24Z" transform="translate(0 -0.01)"/>
          <path class="cls-2" d="M11.84,506.43A12.44,12.44,0,0,1,5.76,505a11,11,0,0,1-4.24-4.11A11.45,11.45,0,0,1,0,495a11.28,11.28,0,0,1,1.52-5.84A10.75,10.75,0,0,1,5.76,485a12.25,12.25,0,0,1,6.08-1.52,12.13,12.13,0,0,1,6,1.48,10.75,10.75,0,0,1,4.24,4.11,11.86,11.86,0,0,1,0,11.76A10.75,10.75,0,0,1,17.84,505,12.13,12.13,0,0,1,11.84,506.43Zm0-2.14a9.67,9.67,0,0,0,4.81-1.19A8.66,8.66,0,0,0,20,499.73a9.79,9.79,0,0,0,0-9.54,8.5,8.5,0,0,0-3.37-3.33,9.49,9.49,0,0,0-4.81-1.23A9.66,9.66,0,0,0,7,486.86a8.67,8.67,0,0,0-3.41,3.33,9.79,9.79,0,0,0,0,9.54A8.84,8.84,0,0,0,7,503.1,9.85,9.85,0,0,0,11.84,504.29Z" transform="translate(0 -0.01)"/>
          <path class="cls-2" d="M51.5,483.69v22.54H49.57l-14.52-18.3v18.3H32.67V483.69h2L49.16,502v-18.3Z" transform="translate(0 -0.01)"/>
          <path class="cls-2" d="M62.53,483.69h2.38v20.48H77.53v2.06h-15Z" transform="translate(0 -0.01)"/>
          <path class="cls-2" d="M85.17,483.69h2.38v22.54H85.17Z" transform="translate(0 -0.01)"/>
          <path class="cls-2" d="M117.4,483.69v22.54h-1.93L101,487.93v18.3H98.57V483.69h2L115.06,502v-18.3Z" transform="translate(0 -0.01)"/>
          <path class="cls-2" d="M144.38,504.17v2.06H128.43V483.69h15.46v2.06H130.81v8h11.68v2H130.81v8.39Z" transform="translate(0 -0.01)"/>
          <path class="cls-2" d="M181.17,506.23,176,499a17.41,17.41,0,0,1-1.8.08h-6.05v7.16h-2.38V483.69h8.43a10.15,10.15,0,0,1,6.74,2.06,7,7,0,0,1,2.47,5.67A7.38,7.38,0,0,1,182,495.9a7.18,7.18,0,0,1-3.78,2.6l5.51,7.73Zm-7-9.17a7.79,7.79,0,0,0,5.1-1.48,5.81,5.81,0,0,0,0-8.35,7.74,7.74,0,0,0-5.1-1.48h-6v11.31Z" transform="translate(0 -0.01)"/>
          <path class="cls-2" d="M208.67,504.17v2.06h-16V483.69h15.46v2.06H195.1v8h11.68v2H195.1v8.39Z" transform="translate(0 -0.01)"/>
          <path class="cls-2" d="M236.77,483.69v22.54h-1.94l-14.51-18.3v18.3h-2.39V483.69h2L234.42,502v-18.3Z" transform="translate(0 -0.01)"/>
          <path class="cls-2" d="M252.19,485.75h-7.93v-2.06h18.21v2.06h-7.89v20.48h-2.39Z" transform="translate(0 -0.01)"/>
          <path class="cls-2" d="M270,483.69h2.39v22.54H270Z" transform="translate(0 -0.01)"/>
          <path class="cls-2" d="M302.18,483.69v22.54h-1.93l-14.51-18.3v18.3h-2.39V483.69h2L299.84,502v-18.3Z" transform="translate(0 -0.01)"/>
          <path class="cls-2" d="M329.08,495h2.3v8.59a10.61,10.61,0,0,1-3.74,2.14,13.86,13.86,0,0,1-4.52.74A12.55,12.55,0,0,1,317,505a10.92,10.92,0,0,1-4.23-4.11,12.06,12.06,0,0,1,0-11.76A10.92,10.92,0,0,1,317,485a12.55,12.55,0,0,1,6.13-1.48,13.31,13.31,0,0,1,4.73.82,9.48,9.48,0,0,1,3.66,2.43L330,488.26a9.31,9.31,0,0,0-6.79-2.63,10.06,10.06,0,0,0-5,1.23,8.93,8.93,0,0,0-3.46,3.33,9.86,9.86,0,0,0,0,9.54,9.11,9.11,0,0,0,3.46,3.37,10,10,0,0,0,4.93,1.19,9.79,9.79,0,0,0,5.88-1.72Z" transform="translate(0 -0.01)"/>
          <path class="cls-2" d="M362.32,483.69a10.11,10.11,0,0,1,6.74,2.06,7.75,7.75,0,0,1,0,11.35,10.26,10.26,0,0,1-6.74,2h-6.05v7.12h-2.38V483.69Zm0,13.33a7.87,7.87,0,0,0,5.09-1.44,5.81,5.81,0,0,0,0-8.35,7.71,7.71,0,0,0-5.09-1.48h-6V497Z" transform="translate(0 -0.01)"/>
          <path class="cls-2" d="M380.69,483.69h2.38v20.48h12.62v2.06h-15Z" transform="translate(0 -0.01)"/>
          <path class="cls-2" d="M417.47,500.22H404.93l-2.71,6h-2.47L410,483.69h2.34l10.33,22.54h-2.51Zm-.86-1.93-5.43-12.13-5.38,12.13Z" transform="translate(0 -0.01)"/>
          <path class="cls-2" d="M434.49,485.75h-7.93v-2.06h18.21v2.06h-7.89v20.48h-2.39Z" transform="translate(0 -0.01)"/>
          <path class="cls-2" d="M454.64,485.75v8.84h11.68v2.06H454.64v9.58h-2.39V483.69h15.46v2.06Z" transform="translate(0 -0.01)"/>
          <path class="cls-2" d="M486.18,506.43A12.44,12.44,0,0,1,480.1,505a11,11,0,0,1-4.24-4.11,11.45,11.45,0,0,1-1.52-5.88,11.28,11.28,0,0,1,1.52-5.84A10.75,10.75,0,0,1,480.1,485a12.93,12.93,0,0,1,12.09,0,10.79,10.79,0,0,1,4.23,4.11,11.86,11.86,0,0,1,0,11.76,10.79,10.79,0,0,1-4.23,4.11A12.19,12.19,0,0,1,486.18,506.43Zm0-2.14A9.67,9.67,0,0,0,491,503.1a8.66,8.66,0,0,0,3.37-3.37,9.79,9.79,0,0,0,0-9.54,8.5,8.5,0,0,0-3.37-3.33,9.49,9.49,0,0,0-4.81-1.23,9.66,9.66,0,0,0-4.85,1.23,8.67,8.67,0,0,0-3.41,3.33,9.79,9.79,0,0,0,0,9.54,8.84,8.84,0,0,0,3.41,3.37A9.85,9.85,0,0,0,486.18,504.29Z" transform="translate(0 -0.01)"/>
          <path class="cls-2" d="M522.43,506.23,517.25,499a17.61,17.61,0,0,1-1.81.08h-6.05v7.16H507V483.69h8.43a10.11,10.11,0,0,1,6.74,2.06,7,7,0,0,1,2.47,5.67,7.31,7.31,0,0,1-1.36,4.48,7.14,7.14,0,0,1-3.78,2.6l5.51,7.73Zm-7-9.17a7.81,7.81,0,0,0,5.1-1.48,5.83,5.83,0,0,0,0-8.35,7.75,7.75,0,0,0-5.1-1.48h-6v11.31Z" transform="translate(0 -0.01)"/>
          <path class="cls-2" d="M557.41,483.69v22.54H555.1v-18l-8.84,15.13h-1.15l-8.84-15.05v17.93H534V483.69h2l9.79,16.7,9.7-16.7Z" transform="translate(0 -0.01)"/>
        </g>
      </g>
    </g>
  </g>
</svg>
