<?xml version="1.0" encoding="utf-8"?>
<!-- Generator: Adobe Illustrator 24.0.0, SVG Export Plug-In . SVG Version: 6.00 Build 0)  -->
<svg version="1.1" id="Layer_1" xmlns="http://www.w3.org/2000/svg" xmlns:xlink="http://www.w3.org/1999/xlink" x="0px" y="0px"
	 viewBox="0 0 720 720" style="enable-background:new 0 0 720 720;" xml:space="preserve">
<style type="text/css">
	.st0{fill:#3F7E44;}
	.st1{fill:#FFFFFF;}
</style>
<title>VN_SDG_icons_RGB outlines-01</title>
<g>
	<g id="goal_background">
		<rect x="-1.1" class="st0" width="721.1" height="720.1"/>
	</g>
	<g id="ENG_text_graphics">
		<path class="st1" d="M51.1,88.9c-4.1,2.2-15.8,5.4-19.9,7.5V76.9c5.4-2.2,20.6-9.5,25.7-15.1h20.6v137.7H51.1V88.9z"/>
		<path class="st1" d="M80,160.2v-4.8h26.2v4.6c0.2,13.4,2.6,19.7,11.2,19.7c8.8,0,10.7-6.8,10.7-19.9c0-13.8-3.2-21.6-15.3-21.9
			c-1.5-0.2-3.1-0.2-4.6-0.2v-19.2h4.1c12.2,0,15.8-6.3,15.8-20.4c0-11-2.6-17.3-11.2-17.3s-10.5,7.5-10.7,18.2v6.1H80v-7.5
			c0-24.1,13.6-37.7,36.9-37.7c23.5,0,37.1,12.9,37.1,36.9c0,16.2-7.5,27.4-17.3,30.1c10,3.7,17.3,12.9,17.3,32.5
			c0,25-10,42.5-36.9,42.5C89.5,201.8,80,185.1,80,160.2z"/>
		<path class="st1" d="M231.4,61.6h9.6v21.6h8.4V61.6h9.7v52.6h-9.6V90.9h-8.4v23.3h-9.6L231.4,61.6z"/>
		<path class="st1" d="M271.8,61.6h10.7l9.1,52.6h-8.9l-1.8-11.6h-7.5l-1.8,11.6h-9.1L271.8,61.6z M267.4,44.6h9.1l3.6,13.1h-5.3
			L267.4,44.6z M280,96.1l-2.9-21.2l-2.8,21.2H280z"/>
		<path class="st1" d="M294.9,61.6h6.7L312.2,89V61.6h8v52.6h-6.5l-10.5-29.1v29.1h-8.3V61.6z"/>
		<path class="st1" d="M326,61.6h9.6v21.6h8.4V61.6h9.7v52.6H344V90.9h-8.4v23.3H326V61.6z"/>
		<path class="st1" d="M372.8,89.8h-2.9v-5.1h2.9V61.6h11.6c12,0,15.5,5.1,15.5,16.5v19.2c0,11.7-3.5,17-15.3,17h-11.9V89.8z
			 M384.7,106.8c5.3,0,5.6-2.8,5.6-8.3V76.7c0-5.3-0.5-7.5-5.6-7.5h-2.4v15.5h3v5.1h-3v17H384.7z"/>
		<path class="st1" d="M404.2,97.7V78.1c0-10.8,3.5-17.1,14-17.1s14,6.4,14,17.1v19.7c0,10.7-3.6,17.2-14,17.2
			S404.2,108.5,404.2,97.7z M414.4,46.5h7.5l5.6,10.7h-6.3l-3-6.5l-2.9,6.5h-6.3L414.4,46.5z M422.4,100.4V75.5
			c0-3.6-0.5-6.8-4.2-6.8s-4.2,3.2-4.2,6.8v24.9c0,3.6,0.4,6.9,4.1,6.9S422.3,103.9,422.4,100.4L422.4,100.4z M414.4,118.7h7.6v8.6
			h-7.7L414.4,118.7z"/>
		<path class="st1" d="M437.1,61.6h6.7L454.4,89V61.6h8v52.6h-6.5l-10.5-29.1v29.1h-8.2V61.6z"/>
		<path class="st1" d="M467.4,96.9V79.2c0-11.2,3.2-18.2,13.9-18.2c10.2,0,13.5,6,13.5,15.4v3.1h-9.4v-3.7c0-4.1-0.3-7.1-4-7.1
			c-3.9,0-4.1,3.7-4.1,7.6v23.4c0,4.4,0.8,7.7,4.4,7.7s4.6-3.4,4.6-8v-5.6h-4.7v-6.5h13.3v27h-6.3l-0.6-4.6
			c-1.2,3.1-3.5,5.5-7.8,5.5C470.5,115.1,467.4,107.8,467.4,96.9z"/>
		<path class="st1" d="M229.1,147.6h8.4L243,184l5.3-36.4h8.7l-9,52.6h-9.9L229.1,147.6z"/>
		<path class="st1" d="M260.4,147.6H281v7.4h-11.1v14h8.5v7.5h-8.5V193h11.2v7.3h-20.8V147.6z M267,132.5h7.5l5.6,10.7h-6.3l-3-6.5
			l-2.9,6.5h-6.3L267,132.5z M275.2,127.9h6.8l3.1,7.9h-4.8L275.2,127.9z"/>
		<path class="st1" d="M297.7,147.6h9.6v22.2l8.6-22.2h9.4l-8.9,23.7l9.6,29h-9.8l-7.3-23.5l-1.6,2.9v20.7h-9.6L297.7,147.6z"/>
		<path class="st1" d="M328.7,147.6h9.6v21.6h8.4v-21.6h9.6v52.6h-9.6v-23.3h-8.4v23.3h-9.6L328.7,147.6z"/>
		<path class="st1" d="M362.3,147.6h9.6v52.6h-9.6V147.6z M367.8,130.6h9l-7.2,13.1h-5.4L367.8,130.6z"/>
		<path class="st1" d="M390.9,147.6h9.6v21.6h8.4v-21.6h9.6v52.6h-9.6v-23.3h-8.4v23.3h-9.6V147.6z"/>
		<path class="st1" d="M431.2,147.6h10.7l9.1,52.6h-8.9l-1.8-11.6h-7.5l-1.8,11.6h-9L431.2,147.6z M432.8,132.5h7.5l5.5,10.7h-6.3
			l-3-6.5l-2.9,6.5h-6.3L432.8,132.5z M432.6,204.7h7.7v8.6h-7.7V204.7z M439.4,182.1l-2.9-21.2l-2.8,21.2H439.4z"/>
		<path class="st1" d="M453.6,183.6v-36h9.5v37.5c0,4,0.4,8.1,4.2,8.1s4.2-4,4.2-8.1v-37.5h9.5v36c0,11.1-3,17.4-13.8,17.4
			S453.6,194.7,453.6,183.6z"/>
		<path class="st1" d="M631.6,451.8c-19.1-26.8-105.4-134-266.1-134.2S118.2,424.3,99,451.1c-0.8,1.1-1.5,2.1-2.1,3
			c0.6,0.9,1.3,1.9,2.1,3c19.1,26.8,105.4,134,266.1,134.2s247.3-106.7,266.5-133.5c0.8-1.2,1.5-2.1,2.1-3
			C633.1,454,632.4,453,631.6,451.8 M275.7,385.2c1.5-2.1,6.3-8.2,6.9-9c1.2-1.6,3.7-1.9,5.4-2.2s4,0.6,4.3,1.9s-0.7,6.3-1.5,7.1
			c-2.4,2.4-8.5,5.9-11.9,5.3C276.3,387.9,275.2,385.9,275.7,385.2 M270,396.6c0.3-0.3,0.5-0.5,0.6-0.7c2-2.3,6-2.8,8.8-3.2
			s6.5,0.9,7,2.8s-7,5.2-8.4,6.5c-3.9,3.6-9.9,10.8-13.5,11.6c-1,0.2-2,0.1-2.9-0.3C263.9,407.4,266.7,401.9,270,396.6 M330,520
			c-2.2,8.6-4.7,11.6-6.9,14.3s-10.2,6.2-15.3,5.8s-5.8-14-5.8-21c0-2.4-3.4,4.7-5.2-9.8c-1.1-9.3-7.1,1-7.5-5.3s-3.4-5-6.5-8.9
			s-7,0.4-11.4,2.3s-2.6,3-8.7,1c-0.2,0-0.2-0.1-0.4-0.1c-5.8-13.8-8.8-28.6-8.7-43.6c0-3.8,0.2-7.5,0.6-11.2c0.2-0.4,0.4-0.7,0.7-1
			c5.9-7,5.8-8.6,5.8-8.6l6.5-2.3c6.2,1,12.4,2.5,18.3,4.6c6.5,2.5,16.7,8,22.6,5.5c4.3-1.8,7.7-4.1,7.3-7.7c-0.5-4.5-4-5.6-8.3-2.5
			c-1.6,1.1-4.9-6.8-7.6-6.4s3.3,9.3,1,9.6s-6.7-9.3-7.5-10.8s-4.2-5.4-7.4-2.5c-6.6,6.3-17.3,5.9-19.5,7.5
			c-6.6,4.9-8.3-1.6-8.1-5.6c0.3-0.9,0.5-1.8,0.8-2.7c2.1-2.4,9.8-3.1,12.5-1.4c2.9,1.9,5-0.5,6.1-1.7s0.8-3,0-4.5s1.5-2.7,3-3.1
			s6.5-3.9,8.5-5s12.4-2.4,17-0.1c3.8,2,8.5,1.1,11.2-2.2c2.3-2.7,5-5,8.1-6.8c1.6-0.8-4-6-8.6-0.3s-7,6.2-9.2,6.2
			s-15.1-3.3-16.7-7.3s4-7.1,8.8-9.4s17.8-2.2,21.2-3c6.8-1.5,15.5-4.9,19.8-1.9s-18.3,8-10.8,12.1c2.6,1.5,14.6-6.9,18.7-9
			c9.6-5-9.3-6.6-6.9-16.7c2.8-11.4-23.3-7-36.2-6.1c52.1-33.2,121.3-17.9,154.6,34.2c6.7,10.5,11.6,22.1,14.5,34.2
			c0.1,1.7-0.1,3.5-0.5,5.2c-1,4-8.7,7.5-13.1,1c-1.1-1.6-5.9-6.2-5.8,1.6s7.5,8.6,0.4,13.2s-8.5,3.5-11.8,4.7s-6.5,9.1-5.7,13.4
			s11,16,3.4,15.5c-1.8-0.1-15.1-9.3-17.4-15.2c-2.3-6.2-4.9-12.3-6.6-16.9s-6.5-5.8-10.5-3.1s1.1,5.5-1.8,11.3s-4.9,11-9.1,6.2
			c-10.9-12.5-26.8-6.4-29.3-20.3c-1.3-7.6-7.8-6.8-13.3-11.1s-8.5-6.6-9.4-3.5c-0.8,2.7,17.1,16.9,18.4,20.6
			c1.9,5.4-5.4,10.2-10.7,11.4s-7.6-3-12.8-8.4s-7.5-9.3-7.9-5.1c-0.5,6.2,4.9,15.2,10.3,18.6c4.5,2.9,9.6,4.2,8.1,8.8s0,2-5.1,7
			s-6.1,6.7-5.7,13.6s-1.5,7.4-2.6,13.2C334.7,516.5,332.2,511.5,330,520 M450.1,475.5c3.8-0.3,9.4,4.9,7.2,6.9s-7.9,1.3-10.7-1
			S448.4,475.6,450.1,475.5 M445.4,472c-1.2-0.5-2.3-1.6-3.2-4.4s1.4-4.3,3.7-3.2s5.3,4.6,5.3,6.4S446.6,472.5,445.4,472 M396,471.9
			c-2.2,2-7.9,1.2-10.7-1s1.8-5.8,3.5-6C392.5,464.6,398.2,469.8,396,471.9 M350.2,494c-1.5,2.5-5.8,21.3-8.6,19.1
			c-2.8-2.2,1.2-21.8,2-23.3C348,481.7,357.6,482.1,350.2,494 M365.3,567c-10.6,0-21.2-1.6-31.5-4.6c-1.6-1.3-2.2-3.6-1.4-5.5
			c3.5-9,13.8-12.5,22-13.3c18.1-1.8,42,11.8,45.8,9.7s11.5-12.2,22.8-11.7c7.7,0.3,7.6,1.6,10.2,2.6
			C413.7,559,389.9,567.1,365.3,567 M444.3,534.5c-1.2-0.3-2.4-0.8-3.5-1.3c-6.1-3.1-5.4,1.8-8.4,0.8s3.4-8.1-5.6-2.2
			s-6.6-0.9-10.5-10.9c-3.9-10,4.6-21.3,11.7-23.9c9.7-3.5,15.8-4.2,20.3-5.3c13.5-3.3,16.3-11.3,18.8-6.5c0.5,0.9,0.9,1.8,1.3,2.6
			c1.1,2.3,1.7,4.8,1.7,7.3C464.4,509.9,455.7,523.4,444.3,534.5 M475.1,478.1c-3-0.8-15.5-18.2-5.6-29.6c1.7-1.9-3.3-7.4-2-7.5
			c5.4-0.4,8.3,3,9.8,7.8c0.1,2.1,0.2,4.3,0.2,6.5C477.4,462.9,476.7,470.6,475.1,478.1"/>
	</g>
</g>
</svg>
