<?xml version="1.0" encoding="utf-8"?>
<!-- Generator: Adobe Illustrator 24.0.0, SVG Export Plug-In . SVG Version: 6.00 Build 0)  -->
<svg version="1.1" id="Layer_1" xmlns="http://www.w3.org/2000/svg" xmlns:xlink="http://www.w3.org/1999/xlink" x="0px" y="0px"
	 viewBox="0 0 720 720" style="enable-background:new 0 0 720 720;" xml:space="preserve">
<style type="text/css">
	.st0{fill:#BF8B2E;}
	.st1{fill:#FFFFFF;}
</style>
<title>VN_SDG_icons_RGB outlines-01</title>
<g>
	<g id="goal_background">
		<rect x="-1.1" y="-1.1" class="st0" width="722.2" height="722.2"/>
	</g>
	<g id="ENG_text_graphics">
		<path class="st1" d="M49.1,88.9c-4.1,2.2-15.8,5.4-19.9,7.5V76.9c5.4-2.2,20.6-9.5,25.7-15.1h20.6v137.7H49.1V88.9z"/>
		<path class="st1" d="M78.5,180.9l33.5-51.5c7.3-11.4,14.6-20.9,14.6-33.7c0-8.8-3.4-13.6-10-13.6c-10,0-12.4,9.2-12.4,20.4v6.3
			H78.5V102c0-24.3,10.5-42,37.6-42c24.1,0,36.5,13.4,36.5,36.2c0,16.8-8.7,28.6-18,42.7l-26.5,39.8h40.8v20.7H78.5V180.9z"/>
		<path class="st1" d="M234,68.7h-8.4v-7.1h26.2v7.1h-8.2v45.6H234V68.7z"/>
		<path class="st1" d="M254.9,61.6h9.5v52.6h-9.5L254.9,61.6z"/>
		<path class="st1" d="M270.6,61.6h22.1v6.8h-12.5v15.1h9.9v6.7h-9.9v17.5h12.7v6.6h-22.2V61.6z M277.8,45.5h7.9l6,12h-6.6l-3.4-7.8
			l-3.3,7.8H272L277.8,45.5z"/>
		<path class="st1" d="M296.1,97.2V61.6h9.4v36.7c0,5,0.6,9.5,5.5,9.5s5.5-4.5,5.5-9.5V61.6h9.3v35.6c0,11-3.1,17.7-14.8,17.7
			S296.1,108.3,296.1,97.2z"/>
		<path class="st1" d="M350.4,68.7H342v-7.1h26.2v7.1H360v45.6h-9.6L350.4,68.7z"/>
		<path class="st1" d="M371.2,61.6h9.5v22h10.7v-22h9.6v52.6h-9.6V90.5h-10.7v23.8h-9.5L371.2,61.6z"/>
		<path class="st1" d="M406.8,97.2V61.6h9.4v36.7c0,5,0.6,9.5,5.5,9.5s5.5-4.5,5.5-9.5V61.6h9.3v35.6c0,11-3.1,17.7-14.8,17.7
			S406.8,108.3,406.8,97.2z M417.7,118.6h8.1v8.1h-8.1V118.6z"/>
		<path class="st1" d="M226.3,147.6h8.4l7,37.2l6.6-37.2h8.6l-10.6,52.6h-9.4L226.3,147.6z"/>
		<path class="st1" d="M266.2,147.6h10.3l10.5,52.6h-8.9l-2.1-12.2h-9.2l-2.1,12.2h-9L266.2,147.6z M261.3,131h9l3.8,13H269
			L261.3,131z M275,182l-3.6-22.1l-3.6,22.1H275z"/>
		<path class="st1" d="M302.9,184.9l8.3-1.6c0.3,6.2,1.8,10.3,6,10.3c3,0,4.4-2.1,4.4-4.9c0-4.6-2.3-7.1-5.8-10.1l-6.6-5.8
			c-3.8-3.3-6.1-6.9-6.1-12.8c0-8.3,5.2-13,13.6-13c9.9,0,12.7,6.6,13.2,14.3l-8.3,1.4c-0.2-4.9-0.9-8.6-5.1-8.6
			c-2.9,0-4.4,2.1-4.4,4.9c0,3.6,1.5,5.5,4.3,7.9l6.6,5.8c4.3,3.7,7.9,8.3,7.9,15.3c0,7.6-5.3,12.9-13.2,12.9
			C307.8,201,303.3,195.4,302.9,184.9z"/>
		<path class="st1" d="M342,147.6h10.3l10.5,52.6h-8.9l-2.1-12.2h-9.2l-2.1,12.2h-9L342,147.6z M344.3,141.1
			c2.5-1.1,4.4-2.1,4.4-3.9s-1.6-2.5-3.8-2.5c-1.2,0-2.5,0.2-3.6,0.5v-4c2-0.5,4-0.8,6-0.8c4,0,7.5,1.8,7.5,6.1s-3.4,6.1-7.5,7.6
			L344.3,141.1z M350.7,182l-3.6-22.1l-3.6,22.1H350.7z"/>
		<path class="st1" d="M366.1,147.6h6.7l12.8,30v-30h7.9v52.6h-6.4l-12.9-31.5v31.5h-8.2V147.6z"/>
		<path class="st1" d="M420.7,172.3l-10.3-24.7h9l6.8,16.4l6-16.4h8.3l-10.1,26.5l10.9,26.1h-8.9l-7.5-17.8l-6.5,17.8h-8.3
			L420.7,172.3z"/>
		<path class="st1" d="M443.5,183.2v-35.6h9.4v36.7c0,5,0.6,9.5,5.5,9.5s5.5-4.5,5.5-9.5v-36.7h9.3v35.6c0,11.1-3.1,17.7-14.8,17.7
			S443.5,194.3,443.5,183.2z"/>
		<path class="st1" d="M486.3,147.6h10.3l10.5,52.6h-8.9l-2.1-12.2H487l-2.1,12.2h-9L486.3,147.6z M487.5,133h7.9l6,10.5H495
			l-3.5-6.6l-3.5,6.6h-6.4L487.5,133z M495.1,182l-3.6-22.1L488,182H495.1z M503.5,128.5h7l-5.5,7.7h-5L503.5,128.5z"/>
		<path class="st1" d="M513.2,154.7h-8.4v-7.1H531v7.1h-8.2v45.6h-9.6L513.2,154.7z"/>
		<path class="st1" d="M227.9,269.4v-18.8c0-10.8,3.4-17.6,15-17.6c10.8,0,14.2,6,14.2,15.1v4.4h-9.2v-4.6c0-4.4-0.1-8-4.9-8
			s-5.4,3.8-5.4,8.6v22.8c0,5.7,1.2,8.5,5.4,8.5c4.7,0,4.9-3.7,4.9-8.4v-4.7h9.2v4.2c0,9.3-3.1,16-14.2,16
			C231.3,287,227.9,279.7,227.9,269.4z"/>
		<path class="st1" d="M261,269.8V250c0-10.7,3.9-17,15.2-17s15.1,6.3,15.1,17v19.8c0,10.6-3.9,17.2-15.1,17.2S261,280.4,261,269.8z
			 M281.6,272v-24.2c0-4.4-0.7-7.7-5.4-7.7s-5.5,3.3-5.5,7.7V272c0,4.4,0.7,7.9,5.5,7.9S281.6,276.4,281.6,272L281.6,272z
			 M277.5,217h9l-7.7,13h-5.1L277.5,217z"/>
		<path class="st1" d="M315.6,240.7h-8.4v-7.1h26.2v7.1h-8.2v45.6h-9.6V240.7z"/>
		<path class="st1" d="M336.3,233.6H349c10.5,0,16.5,3.4,16.5,14c0,6.3-1.6,10.7-6.5,12.7l7.3,25.9h-9.6l-6.3-24.1h-4.5v24.1h-9.6
			V233.6z M348.9,256.2c5.5,0,7.5-2.4,7.5-8.1c0-5.3-1.5-7.9-7-7.9h-3.6v16L348.9,256.2z"/>
		<path class="st1" d="M378.7,233.6H389l10.5,52.7h-8.9l-2.1-12.2h-9.2l-2.1,12.2h-9L378.7,233.6z M387.5,268l-3.6-22.1l-3.6,22.1
			H387.5z M385.1,217h9l-7.7,13h-5.1L385.1,217z"/>
		<path class="st1" d="M401.4,269.4v-18.8c0-10.8,3.5-17.6,15-17.6c10.8,0,14.2,6,14.2,15.1v4.4h-9.2v-4.6c0-4.4-0.1-8-4.9-8
			s-5.4,3.8-5.4,8.6v22.8c0,5.7,1.2,8.5,5.4,8.5c4.8,0,4.9-3.7,4.9-8.4v-4.7h9.2v4.2c0,9.3-3.1,16-14.2,16
			C404.9,287,401.4,279.7,401.4,269.4z"/>
		<path class="st1" d="M435.6,233.6h9.5v22h10.7v-22h9.6v52.7h-9.6v-23.8h-10.7v23.8h-9.5V233.6z"/>
		<path class="st1" d="M485.4,233.6h6.7l12.8,30v-30h7.9v52.7h-6.4l-12.9-31.5v31.5h-8.2V233.6z"/>
		<path class="st1" d="M519,233.6h9.5v22h10.8v-22h9.6v52.7h-9.6v-23.8h-10.7v23.8H519V233.6z"/>
		<path class="st1" d="M555.3,233.6h9.5v52.7h-9.5V233.6z"/>
		<path class="st1" d="M571,233.6h22.1v6.8h-12.6v15.1h9.9v6.7h-9.9v17.5h12.7v6.6H571V233.6z M578.2,219h7.9l6,10.5h-6.4l-3.5-6.6
			l-3.4,6.6h-6.4L578.2,219z M576.9,290.6h8.1v8.1h-8.1V290.6z"/>
		<path class="st1" d="M597.6,233.6h10l7.5,36.5l7.7-36.5h9.7l1,52.7h-7.2l-0.8-36.6l-7.5,36.6h-5.8l-7.6-36.7l-0.7,36.7h-7.2
			L597.6,233.6z"/>
		<path class="st1" d="M544.1,373.7c-32-25.3-74.5-25.8-90-22.1l-1.8,0.4c-18,4.2-46.5,11.3-79.9,52.7c-0.2,0.2-0.4,0.5-0.6,0.7
			l-0.4,0.5c-0.4,0.5-0.5,1-0.6,1.6c0,0.5,0.1,1,0.4,1.4l0.8,1.3c4.2,7,9.5,16,13.9,24.3c0,0.1,0.1,0.2,0.1,0.3
			c0.5,1,1.5,1.6,2.5,1.6c0.7,0,1.5-0.3,2-0.8c0.2-0.3,0.4-0.6,0.6-0.9c29.6-41,52.9-46.6,68.7-50.3l1.9-0.4
			c8.2-2,39.3-1.9,61.7,15.9c17.5,13.8,26.4,35.8,26.4,65.4c0,49.6-24.1,69-44.4,76.6c-31.4,11.7-61.4-4-61.7-4.1l-1.4-0.7
			c-17.2-7.5-42.9-23-67.2-71.7c-48.9-98.1-89.8-107.3-116.8-113.5l-1.5-0.3c-12.3-2.8-55.1-4.8-88.7,22
			c-17.6,14-38.5,41.2-38.5,91.4c0,30.6,6.3,50.7,22.4,72c3.5,4.8,39.7,51.3,109.6,37.9c11.2-2.1,26.4-7.5,43-20l15.4,13.9
			c1,0.9,2.6,0.8,3.5-0.2c0.4-0.5,0.6-1.1,0.6-1.7v-0.2l11.1-68.3v-0.8c0-0.7-0.3-1.4-0.8-1.8c-0.4-0.4-1-0.6-1.6-0.6h-0.5l-0.7,0.1
			l-65.4,18.3l-1.2,0.2c-0.5,0.1-0.9,0.4-1.3,0.7c-0.9,1-0.9,2.6,0.1,3.5c0,0,0,0,0,0l0.8,0.7l14.7,13.2c-9.5,6.1-17.7,8.9-24,10.2
			c-50.6,9.7-75.6-23.5-76.5-24.8L179,517c-11.8-15.4-15.7-28.5-15.7-52c0-29.7,8.7-51.7,26-65.5c21.9-17.5,52.1-17.6,60.6-15.6
			l1.5,0.3c22.1,5,52.5,11.9,94.3,95.9c21.7,43.6,48.9,72.1,83.1,87.1c16.3,7.9,34.1,12,52.1,12.1c12.4,0,24.7-2.1,36.3-6.4
			c19.8-7.4,66-32.7,66-107.7C583.2,415.1,562,387.8,544.1,373.7"/>
	</g>
</g>
</svg>
