<?xml version="1.0" encoding="utf-8"?>
<!-- Generator: Adobe Illustrator 24.0.0, SVG Export Plug-In . SVG Version: 6.00 Build 0)  -->
<svg version="1.1" id="Layer_1" xmlns="http://www.w3.org/2000/svg" xmlns:xlink="http://www.w3.org/1999/xlink" x="0px" y="0px"
	 viewBox="0 0 720 720" style="enable-background:new 0 0 720 720;" xml:space="preserve">
<style type="text/css">
	.st0{fill:#FD9D24;}
	.st1{fill:#FFFFFF;}
</style>
<title>VN_SDG_icons_RGB outlines-01</title>
<g>
	<g id="goal_background">
		<rect x="-1.1" y="-1.1" class="st0" width="722.2" height="722.2"/>
	</g>
	<g id="ENG_text_graphics">
		<path class="st1" d="M49.1,88.9c-3.9,2.2-15.1,5.4-19.1,7.5V76.9c5.2-2.2,19.7-9.5,24.6-15.1h19.7v137.7H49.1V88.9z"/>
		<path class="st1" d="M99.8,88.9c-3.9,2.2-15.2,5.4-19.1,7.5V76.9c5.2-2.2,19.7-9.5,24.6-15.1h19.7v137.7H99.8V88.9z"/>
		<path class="st1" d="M167.8,97.4V78.7c0-10.8,3.4-17.6,15-17.6c10.8,0,14.2,6,14.2,15.1v4.4h-9.2v-4.6c0-4.4-0.1-8-4.9-8
			s-5.4,3.8-5.4,8.6v22.8c0,5.7,1.2,8.4,5.4,8.4c4.8,0,4.9-3.7,4.9-8.4v-4.7h9.2V99c0,9.3-3.1,16-14.2,16
			C171.3,115,167.8,107.7,167.8,97.4z"/>
		<path class="st1" d="M209,61.6h10.3l10.5,52.6h-8.9l-2.1-12.2h-9.2l-2.1,12.2h-9L209,61.6z M217.8,96l-3.6-22.1L210.6,96H217.8z
			 M215.4,45h9l-7.7,13h-5.1L215.4,45z"/>
		<path class="st1" d="M231,97.4V78.7c0-10.8,3.5-17.7,15-17.7c10.8,0,14.2,6,14.2,15.1v4.4H251v-4.5c0-4.4-0.1-8-4.9-8
			s-5.4,3.8-5.4,8.6v22.8c0,5.7,1.2,8.4,5.4,8.4c4.7,0,4.9-3.7,4.9-8.4v-4.7h9.2V99c0,9.3-3.1,16-14.2,16
			C234.5,115,231,107.7,231,97.4z"/>
		<path class="st1" d="M282.7,68.7h-8.4v-7.1h26.2v7.1h-8.2v45.6h-9.6V68.7z"/>
		<path class="st1" d="M302.8,61.6h9.5v22h10.7v-22h9.6v52.6h-9.6V90.5h-10.7v23.8h-9.5V61.6z"/>
		<path class="st1" d="M345.9,61.6h10.3l10.5,52.6h-8.9l-2.1-12.2h-9.2l-2.1,12.2h-9L345.9,61.6z M341,45h9l3.8,13h-5.1L341,45z
			 M354.7,96l-3.6-22.1L347.6,96H354.7z"/>
		<path class="st1" d="M369.3,61.6h6.7l12.8,30v-30h7.9v52.6h-6.3l-12.9-31.5v31.5h-8.2V61.6z"/>
		<path class="st1" d="M402.2,61.6h9.5v22h10.7v-22h9.6v52.6h-9.6V90.5h-10.7v23.8h-9.5V61.6z"/>
		<path class="st1" d="M450.6,61.6h15.5c9.4,0,13.5,5.5,13.5,14.9c0,10.3-5.6,14.3-14.1,14.3h-5.3v23.4h-9.6V61.6z M463.9,84.1
			c5.3,0,6.6-2,6.6-7.6s-0.7-8.1-6.6-8.1h-3.7v15.7H463.9z"/>
		<path class="st1" d="M482.4,61.6h9.5v22h10.7v-22h9.6v52.6h-9.6V90.5h-10.7v23.8h-9.5L482.4,61.6z"/>
		<path class="st1" d="M516.8,97.8V78c0-10.7,3.9-17,15.2-17s15.2,6.3,15.2,17v19.8c0,10.6-3.9,17.2-15.2,17.2
			S516.8,108.4,516.8,97.8z M528,47h7.9l6,10.5h-6.4l-3.5-6.6l-3.5,6.6h-6.4L528,47z M537.4,100V75.8c0-4.4-0.7-7.7-5.4-7.7
			s-5.5,3.3-5.5,7.7V100c0,4.4,0.7,7.9,5.5,7.9S537.4,104.4,537.4,100z M544,42.5h7l-5.5,7.7h-4.9L544,42.5z"/>
		<path class="st1" d="M562.3,61.6h8.5l7,37.2l6.6-37.2h8.7l-10.6,52.6h-9.4L562.3,61.6z"/>
		<path class="st1" d="M601.5,61.6h10.3l10.5,52.6h-8.9l-2.1-12.2h-9.2l-2.2,12.2h-9L601.5,61.6z M596.6,45h9l3.8,13h-5.1L596.6,45z
			 M610.3,96l-3.6-22.1L603.1,96H610.3z"/>
		<path class="st1" d="M167.8,183.4v-18.8c0-10.8,3.4-17.6,15-17.6c10.8,0,14.2,6,14.2,15.1v4.4h-9.2v-4.6c0-4.4-0.1-8-4.9-8
			s-5.4,3.8-5.4,8.6v22.8c0,5.7,1.2,8.4,5.4,8.4c4.8,0,4.9-3.7,4.9-8.4v-4.7h9.2v4.2c0,9.3-3.1,16-14.2,16
			C171.3,201,167.8,193.7,167.8,183.4z"/>
		<path class="st1" d="M200.3,183.8V164c0-10.7,3.9-17,15.2-17s15.1,6.3,15.1,17v19.8c0,10.6-3.9,17.2-15.1,17.2
			S200.3,194.4,200.3,183.8z M211.4,133h7.9l6,10.5h-6.4l-3.5-6.6l-3.4,6.6h-6.4L211.4,133z M220.9,186v-24.2c0-4.4-0.7-7.7-5.4-7.7
			s-5.5,3.3-5.5,7.7V186c0,4.4,0.7,7.9,5.5,7.9S220.9,190.4,220.9,186z M211.5,204.6h8.1v8.1h-8.1V204.6z"/>
		<path class="st1" d="M235.1,147.6h6.7l12.8,30v-30h7.9v52.6h-6.4l-12.9-31.5v31.5h-8.2L235.1,147.6z"/>
		<path class="st1" d="M267,182.9v-17.7c0-11.3,3.5-18.2,15-18.2c10.8,0,14.6,5.6,14.6,15.3v2.7h-9.2v-3c0-5.1-0.5-8.1-5.3-8.1
			c-5.1,0-5.5,4.1-5.5,8.9v22c0,5.5,1,8.9,5.7,8.9s5.8-3.6,5.8-9.4v-4.9h-5.7v-6.1h14.3v26.7h-6.2l-0.6-5.1c-1.4,3.4-4,5.9-8.9,5.9
			C270.6,201,267,194,267,182.9z"/>
		<path class="st1" d="M314.9,175.5h-3.3v-4.8h3.3v-23.1h12.4c12.8,0,16.6,5.1,16.6,16.4v19.2c0,11.6-4,17.1-16.3,17.1h-12.7V175.5z
			 M327.5,193.6c6.6,0,6.8-3.5,6.8-10.1v-20.1c0-6.3-0.6-8.9-7-8.9h-3.1v16.3h3.5v4.8h-3.5v18.1H327.5z"/>
		<path class="st1" d="M347.5,183.8V164c0-10.7,3.9-17,15.2-17s15.1,6.3,15.1,17v19.8c0,10.6-3.9,17.2-15.1,17.2
			S347.5,194.4,347.5,183.8z M358.7,133h7.9l6,10.5h-6.4l-3.5-6.6l-3.4,6.6h-6.4L358.7,133z M368.1,186v-24.2c0-4.4-0.7-7.7-5.4-7.7
			s-5.5,3.3-5.5,7.7V186c0,4.4,0.7,7.9,5.5,7.9S368.1,190.4,368.1,186z M367.5,128.5h7l3.4,7.7h-5L367.5,128.5z"/>
		<path class="st1" d="M382.3,147.6h6.7l12.8,30v-30h7.9v52.6h-6.4l-12.9-31.5v31.5h-8.2L382.3,147.6z"/>
		<path class="st1" d="M414.2,182.9v-17.7c0-11.3,3.4-18.2,15-18.2c10.8,0,14.6,5.6,14.6,15.3v2.7h-9.1v-3c0-5.1-0.5-8.1-5.3-8.1
			c-5.1,0-5.5,4.1-5.5,8.9v22c0,5.5,1,8.9,5.7,8.9s5.8-3.6,5.8-9.4v-4.9h-5.7v-6.1H444v26.7h-6.2l-0.6-5.1c-1.3,3.7-5,6.1-8.9,5.9
			C417.8,201,414.2,194,414.2,182.9z"/>
		<path class="st1" d="M461.8,147.6h13c9.2,0,15.4,3.1,15.4,13.5c0,6.4-2.7,10-7.6,10.8c6.2,1.2,9.1,5.6,9.1,13
			c0,10.1-4.9,15.3-14.7,15.3h-15.2V147.6z M474.7,169.1c5.7,0,7.2-2.5,7.2-7.9c0-5.6-2.7-7-8.6-7h-2v14.8L474.7,169.1z
			 M475.1,193.5c5.9,0,7.5-2.7,7.5-8.6c0-6.2-2.1-9.1-7.8-9.1h-3.4v17.8H475.1z"/>
		<path class="st1" d="M495.4,147.6h22.1v6.8h-12.5v15.1h9.9v6.7h-9.9v17.5h12.7v6.6h-22.2V147.6z M502.6,133h7.9l6,10.5h-6.4
			l-3.5-6.6l-3.5,6.6h-6.4L502.6,133z M511.4,128.5h7l3.4,7.7h-5L511.4,128.5z"/>
		<path class="st1" d="M520.5,147.6h6.7l12.8,30v-30h8v52.6h-6.4l-12.9-31.5v31.5h-8.2L520.5,147.6z"/>
		<path class="st1" d="M563.9,147.6h8.5l7,37.2l6.6-37.2h8.6L584,200.3h-9.4L563.9,147.6z"/>
		<path class="st1" d="M626.5,150.5v32.7c0,11.1-3.1,17.7-14.8,17.7s-14.8-6.7-14.8-17.7v-35.6h9.4v36.7c0,5,0.6,9.5,5.5,9.5
			s5.5-4.5,5.5-9.5v-36.7h4c2.6,0,3.5-1.7,3.5-5.2h6.4C631.2,146.5,629.5,149.2,626.5,150.5z M606.3,140.3h-4.5
			c0-4.7,1.3-8.2,5.5-8.2c3.2,0,5.3,3,8.1,3c1.5,0,2.1-0.9,2.1-2.6h4.3c0,4.1-0.7,8.2-4.9,8.2c-3.4,0-5.6-3.1-8.3-3.1
			C606.9,137.7,606.3,138.7,606.3,140.3z"/>
		<path class="st1" d="M631.4,147.6h6.7l12.8,30v-30h7.9v52.6h-6.4l-12.9-31.5v31.5h-8.2V147.6z"/>
		<path class="st1" d="M663.3,182.9v-17.7c0-11.3,3.4-18.2,15-18.2c10.8,0,14.6,5.6,14.6,15.3v2.7h-9.2v-3c0-5.1-0.5-8.1-5.3-8.1
			c-5.1,0-5.5,4.1-5.5,8.9v22c0,5.5,1,8.9,5.7,8.9s5.8-3.6,5.8-9.4v-4.9h-5.7v-6.1h14.3v26.7h-6.2l-0.7-5.1c-1.3,3.7-5,6.1-8.9,5.9
			C667,201,663.3,194,663.3,182.9z"/>
		<path class="st1" d="M122.1,549.6h109.1c1.5,0,2.7-1.2,2.7-2.7c0-0.7-0.3-1.3-0.7-1.8L233,545l-54.3-70.2l-0.5-0.6
			c-1-1.1-2.6-1.2-3.7-0.2c0,0,0,0,0,0l-0.3,0.4l-0.5,0.6l-53,69.5l-0.8,1c-0.3,0.4-0.5,1-0.5,1.5
			C119.4,548.4,120.6,549.6,122.1,549.6z"/>
		<path class="st1" d="M230.9,559.5H121.5c-1.5,0-2.7,1.2-2.7,2.7v85.6c0,1.5,1.2,2.7,2.7,2.7h35.2v-53.8c0-1.5,1.2-2.7,2.7-2.7
			c0,0,0,0,0,0h32.7c1.5,0,2.7,1.2,2.7,2.7c0,0,0,0,0,0v53.8h36.1c1.5,0,2.7-1.2,2.7-2.7v-85.6C233.5,560.7,232.3,559.5,230.9,559.5
			z"/>
		<path class="st1" d="M608.8,537.1H500.5c-1.4,0-2.6,1.1-2.6,2.6c0,0,0,0,0,0v109.3c0,1.4,1.2,2.6,2.6,2.6c0,0,0,0,0,0h108.2
			c1.4,0,2.6-1.1,2.7-2.6c0,0,0,0,0,0V539.6C611.4,538.2,610.2,537.1,608.8,537.1C608.8,537.1,608.8,537.1,608.8,537.1 M549.6,608.4
			c0,1.4-1.2,2.6-2.6,2.6c0,0,0,0,0,0h-32.3c-1.4,0-2.6-1.1-2.7-2.6v-19.6c0-1.4,1.2-2.6,2.6-2.6c0,0,0,0,0,0h32.3
			c1.4,0,2.6,1.1,2.6,2.6c0,0,0,0,0,0L549.6,608.4z M549.6,572.1c0,1.4-1.2,2.6-2.6,2.6c0,0,0,0,0,0h-32.3c-1.4,0-2.6-1.1-2.7-2.6
			c0,0,0,0,0,0v-19.7c0-1.4,1.2-2.6,2.7-2.6c0,0,0,0,0,0h32.3c1.4,0,2.6,1.1,2.6,2.6c0,0,0,0,0,0L549.6,572.1z M599,608.4
			c0,1.4-1.2,2.6-2.6,2.6c0,0,0,0,0,0H564c-1.4,0-2.6-1.1-2.7-2.6c0,0,0,0,0,0v-19.6c0-1.4,1.2-2.6,2.6-2.6c0,0,0,0,0,0h32.3
			c1.4,0,2.6,1.1,2.6,2.5c0,0,0,0,0,0L599,608.4z M599,572.1c0,1.4-1.2,2.6-2.6,2.6c0,0,0,0,0,0H564c-1.4,0-2.6-1.1-2.6-2.6
			c0,0,0,0,0,0v-19.7c0-1.4,1.2-2.6,2.6-2.6c0,0,0,0,0,0h32.3c1.4,0,2.6,1.1,2.6,2.6c0,0,0,0,0,0L599,572.1z"/>
		<path class="st1" d="M357.2,283.4H251.3c-1.4,0-2.6,1.2-2.6,2.6v362c0,1.4,1.2,2.6,2.6,2.6h105.9c1.4,0,2.6-1.2,2.6-2.6V286
			C359.8,284.6,358.6,283.4,357.2,283.4 M294.2,609.3c0,0.8-0.6,1.4-1.4,1.4h-24.3c-0.8,0-1.4-0.6-1.4-1.4l0,0v-27
			c0-0.8,0.6-1.4,1.4-1.4c0,0,0,0,0,0h24.3c0.8,0,1.4,0.6,1.4,1.4V609.3z M294.2,547.2c0,0.8-0.6,1.4-1.4,1.4h0h-24.3
			c-0.8,0-1.4-0.6-1.4-1.4c0,0,0,0,0,0v-27c0-0.8,0.6-1.4,1.4-1.4c0,0,0,0,0,0h24.3c0.8,0,1.4,0.6,1.4,1.4c0,0,0,0,0,0V547.2z
			 M294.2,485.2c0,0.8-0.6,1.4-1.4,1.4h0h-24.3c-0.8,0-1.4-0.6-1.4-1.4v0v-27c0-0.8,0.6-1.4,1.4-1.4h0h24.3c0.8,0,1.4,0.6,1.4,1.4v0
			V485.2z M294.2,423.1c0,0.8-0.6,1.4-1.4,1.4h0h-24.3c-0.8,0-1.4-0.6-1.4-1.4v0v-27c0-0.8,0.6-1.4,1.4-1.4c0,0,0,0,0,0h24.3
			c0.8,0,1.4,0.6,1.4,1.4c0,0,0,0,0,0V423.1z M294.2,361.1c0,0.8-0.6,1.4-1.4,1.4h-24.3c-0.8,0-1.4-0.6-1.4-1.4v0v-27
			c0-0.8,0.6-1.4,1.4-1.4h0h24.3c0.8,0,1.4,0.6,1.4,1.4v0V361.1z M341.8,609.3c0,0.8-0.6,1.4-1.4,1.4h-24.3c-0.8,0-1.4-0.6-1.4-1.4
			l0,0v-27c0-0.8,0.6-1.4,1.4-1.4c0,0,0,0,0,0h24.3c0.8,0,1.4,0.6,1.4,1.4v0L341.8,609.3z M341.8,547.2c0,0.8-0.6,1.4-1.4,1.4
			c0,0,0,0,0,0h-24.3c-0.8,0-1.4-0.6-1.4-1.4c0,0,0,0,0,0v-27c0-0.8,0.6-1.4,1.4-1.4c0,0,0,0,0,0h24.3c0.8,0,1.4,0.6,1.4,1.4
			c0,0,0,0,0,0L341.8,547.2z M341.8,485.2c0,0.8-0.6,1.4-1.4,1.4h-24.3c-0.8,0-1.4-0.6-1.4-1.4v0v-27c0-0.8,0.6-1.4,1.4-1.4h0h24.3
			c0.8,0,1.4,0.6,1.4,1.4L341.8,485.2z M341.8,423.1c0,0.8-0.6,1.4-1.4,1.4h-24.3c-0.8,0-1.4-0.6-1.4-1.4v0v-27
			c0-0.8,0.6-1.4,1.4-1.4c0,0,0,0,0,0h24.3c0.8,0,1.4,0.6,1.4,1.4c0,0,0,0,0,0L341.8,423.1z M341.8,361.1c0,0.8-0.6,1.4-1.4,1.4
			h-24.3c-0.8,0-1.4-0.6-1.4-1.4v0v-27c0-0.8,0.6-1.4,1.4-1.4h0h24.3c0.8,0,1.4,0.6,1.4,1.4L341.8,361.1z"/>
		<path class="st1" d="M611.3,526.1c0,1.2-1,2.2-2.1,2.2c0,0,0,0,0,0H500.2c-1.2,0-2.2-1-2.2-2.2c0,0,0,0,0,0v-21.8
			c0-1.2,1-2.2,2.2-2.2h108.9c1.2,0,2.2,1,2.2,2.2V526.1z"/>
		<path class="st1" d="M485.1,351.8c-0.4-1.2-1.4-2-2.7-2c-0.5,0-1.1,0.2-1.5,0.5c-0.1,0-0.1,0.1-0.2,0.1l-0.9,1.1l-104.1,132
			l-0.5,0.6c-0.6,0.5-0.9,1.3-0.9,2.1v162.3c0,1.4,1.2,2.6,2.6,2.6c0,0,0,0,0,0h105.8c1.4,0,2.6-1.1,2.6-2.6c0,0,0,0,0,0V352.8
			C485.4,352.5,485.3,352.1,485.1,351.8z M441.3,423.5l0.8-0.9c7.1-9.1,19.1-23.9,25-31.1l0.8-0.9c0.6-0.7,1.4-1.1,2.3-1.1
			c1.4,0,2.6,1,2.9,2.4v33.4c0,1.6-1.3,2.9-2.9,3c0,0-0.1,0-0.1,0s-0.1,0-0.1,0h-26c0,0-0.1,0-0.1,0s-0.1,0-0.1,0
			c-1.7-0.1-2.9-1.5-2.9-3.1C440.8,424.5,441,424,441.3,423.5L441.3,423.5z M424.8,608.4c0,1.4-1.1,2.6-2.6,2.6c0,0,0,0,0,0h-31.6
			c-1.4,0-2.6-1.1-2.6-2.6c0,0,0,0,0,0v-19.8c0-1.4,1.2-2.6,2.6-2.6c0,0,0,0,0,0h31.6c1.4,0,2.6,1.1,2.6,2.6c0,0,0,0,0,0V608.4z
			 M424.8,571.9c0,1.4-1.2,2.6-2.6,2.6c0,0,0,0,0,0h-31.6c-1.4,0-2.6-1.1-2.6-2.6c0,0,0,0,0,0v-19.8c0-1.4,1.1-2.6,2.5-2.6
			c0,0,0,0,0,0h31.6c1.4,0,2.6,1.1,2.6,2.5c0,0,0,0,0,0V571.9z M424.8,535.4c0,1.4-1.2,2.6-2.6,2.6c0,0,0,0,0,0h-31.6
			c-1.4,0-2.6-1.1-2.6-2.6c0,0,0,0,0,0v-19.8c0-1.4,1.1-2.6,2.6-2.6c0,0,0,0,0,0h31.6c1.4,0,2.6,1.1,2.6,2.6c0,0,0,0,0,0V535.4z
			 M424.9,455.4v43.5c0,1.4-1.2,2.6-2.6,2.6h-31.6c-1.4,0-2.6-1.1-2.6-2.6c0,0,0,0,0,0v-5.5c0-0.3,0.1-0.7,0.2-1
			c0-0.1,0.1-0.2,0.1-0.3c0.1-0.1,0.1-0.2,0.2-0.4l0.3-0.4c4-5.8,22.2-28.2,29.9-37.6l0.8-0.9c0.6-0.7,1.4-1.1,2.3-1.1
			c1.4,0,2.6,1,2.9,2.4L424.9,455.4z M473.1,608.4c0,1.4-1.1,2.6-2.6,2.6c0,0,0,0,0,0h-31.6c-1.4,0-2.6-1.1-2.6-2.6c0,0,0,0,0,0
			v-19.8c0-1.4,1.2-2.6,2.6-2.6c0,0,0,0,0,0h31.6c1.4,0,2.6,1.2,2.6,2.6V608.4z M473.1,571.9c0,1.4-1.2,2.6-2.6,2.6h-31.6
			c-1.4,0-2.6-1.1-2.6-2.6c0,0,0,0,0,0v-19.8c0-1.4,1.1-2.6,2.6-2.6c0,0,0,0,0,0h31.6c1.4,0,2.6,1.2,2.6,2.6c0,0,0,0,0,0V571.9z
			 M473.1,535.4c0,1.4-1.1,2.6-2.6,2.6c0,0,0,0,0,0h-31.6c-1.4,0-2.6-1.1-2.6-2.6c0,0,0,0,0,0v-19.8c0-1.4,1.2-2.6,2.6-2.6
			c0,0,0,0,0,0h31.6c1.4,0,2.6,1.2,2.6,2.6V535.4z M473.1,498.9c0,1.4-1.2,2.6-2.6,2.6h-31.6c-1.4,0-2.6-1.1-2.6-2.6c0,0,0,0,0,0
			v-19.7c0-1.4,1.2-2.6,2.6-2.6c0,0,0,0,0,0h31.6c1.4,0,2.6,1.2,2.6,2.6V498.9z M473.1,462.3c0,1.4-1.1,2.6-2.5,2.6c0,0,0,0-0.1,0
			h-31.6c-1.4,0-2.6-1.1-2.6-2.6c0,0,0,0,0,0v-19.8c0-1.4,1.2-2.6,2.6-2.6c0,0,0,0,0,0h31.6c1.4,0,2.6,1.2,2.6,2.6V462.3z"/>
	</g>
</g>
</svg>
